<svg width="24" height="24" viewBox="0 0 24 24" fill="none" xmlns="http://www.w3.org/2000/svg">
<path d="M11.1042 4.0625V0H12.7292V4.0625H11.1042ZM18.0375 6.93333L16.9 5.79583L19.7708 2.89792L20.9083 4.0625L18.0375 6.93333ZM19.7708 12.7292V11.1042H23.8333V12.7292H19.7708ZM11.1042 23.8333V19.7708H12.7292V23.8333H11.1042ZM5.76875 6.90625L2.925 4.0625L4.0625 2.925L6.93333 5.79583L5.76875 6.90625ZM19.7979 20.9083L16.9 18.0375L18.0104 16.9271L20.9354 19.7438L19.7979 20.9083ZM0 12.7292V11.1042H4.0625V12.7292H0ZM4.08958 20.9083L2.925 19.7708L5.76875 16.9271L6.36458 17.4688L6.96042 18.0375L4.08958 20.9083ZM11.9167 18.4167C10.1111 18.4167 8.57639 17.7847 7.3125 16.5208C6.04861 15.2569 5.41667 13.7222 5.41667 11.9167C5.41667 10.1111 6.04861 8.57639 7.3125 7.3125C8.57639 6.04861 10.1111 5.41667 11.9167 5.41667C13.7222 5.41667 15.2569 6.04861 16.5208 7.3125C17.7847 8.57639 18.4167 10.1111 18.4167 11.9167C18.4167 13.7222 17.7847 15.2569 16.5208 16.5208C15.2569 17.7847 13.7222 18.4167 11.9167 18.4167ZM11.9167 16.7917C13.2708 16.7917 14.4219 16.3177 15.3698 15.3698C16.3177 14.4219 16.7917 13.2708 16.7917 11.9167C16.7917 10.5625 16.3177 9.41146 15.3698 8.46354C14.4219 7.51563 13.2708 7.04167 11.9167 7.04167C10.5625 7.04167 9.41146 7.51563 8.46354 8.46354C7.51563 9.41146 7.04167 10.5625 7.04167 11.9167C7.04167 13.2708 7.51563 14.4219 8.46354 15.3698C9.41146 16.3177 10.5625 16.7917 11.9167 16.7917Z" fill="#757575"/>
</svg>
