<svg width="18" height="18" viewBox="0 0 18 18" fill="none" xmlns="http://www.w3.org/2000/svg">
<path fill-rule="evenodd" clip-rule="evenodd" d="M7.5 15C11.6421 15 15 11.6421 15 7.5C15 3.35786 11.6421 0 7.5 0C3.35786 0 0 3.35786 0 7.5C0 11.6421 3.35786 15 7.5 15ZM7.5 13.2353C10.6675 13.2353 13.2353 10.6675 13.2353 7.5C13.2353 4.33248 10.6675 1.76471 7.5 1.76471C4.33248 1.76471 1.76471 4.33248 1.76471 7.5C1.76471 10.6675 4.33248 13.2353 7.5 13.2353Z" fill="#8A62AB"/>
<path d="M11.6937 11.7202C12.0769 11.3225 12.7099 11.3106 13.1077 11.6937L17.0011 15.4439C17.3988 15.827 17.4107 16.4601 17.0276 16.8579C16.6444 17.2556 16.0114 17.2675 15.6136 16.8844L11.7202 13.1342C11.3224 12.7511 11.3106 12.118 11.6937 11.7202Z" fill="#8A62AB"/>
</svg>
